<svg xmlns="http://www.w3.org/2000/svg" width="320" height="280" viewBox="0 0 320 280" role="img" aria-label="HotelDocKorea">
  <title>HotelDocKorea · 세로형 워드마크</title>
  <defs>
    <clipPath id="frameV">
      <rect x="110" y="10" width="100" height="100" rx="13"/>
    </clipPath>
  </defs>
  <g clip-path="url(#frameV)">
    <rect x="110" y="10" width="100" height="100" fill="#FADDDC"/>
    <path d="M 110 60 Q 135 47 160 60 T 210 60 L 210 110 L 110 110 Z" fill="#D4E4F2"/>
  </g>
  <rect x="110" y="10" width="100" height="100" rx="13" fill="none" stroke="#534AB7" stroke-width="1"/>
  <g fill="#534AB7">
    <rect x="123" y="24" width="9" height="66"/>
    <rect x="123" y="51" width="30" height="9"/>
    <rect x="144" y="24" width="9" height="66"/>
  </g>
  <path d="M 162 24 L 162 90 L 172 90 Q 198 90 198 57 Q 198 24 172 24 Z"
        fill="#FFFFFF" fill-opacity="0.5"
        stroke="#534AB7" stroke-width="0.8"/>
  <text x="160" y="160" text-anchor="middle" font-family="system-ui, -apple-system, 'Segoe UI', sans-serif"
        font-size="32" font-weight="600" fill="#534AB7">HotelDocKorea</text>
  <text x="160" y="195" text-anchor="middle" font-family="system-ui, -apple-system, 'Segoe UI', sans-serif"
        font-size="15" font-weight="400" fill="#7F77DD">떠나기 전, 가장 먼저 열어보는 호텔 가이드</text>
  <text x="160" y="235" text-anchor="middle" font-family="system-ui, -apple-system, 'Segoe UI', sans-serif"
        font-size="13" font-weight="400" fill="#9E98DB" letter-spacing="2">KOREA · HOTEL · RESORT</text>
</svg>
